<?xml version="1.0" encoding="UTF-8"?>
<svg width="1270px" height="513px" viewBox="0 0 1270 513" version="1.1" xmlns="http://www.w3.org/2000/svg" xmlns:xlink="http://www.w3.org/1999/xlink" style="background: #2196F3;">
  <g id="Logo/blue" stroke="none" stroke-width="1" fill="none" fill-rule="evenodd">
    <g id="Page-1" transform="translate(171.000000, 171.000000)" fill="#FFFFFF">
        <path d="M322,77 C322,88.5986968 312.373934,98 300.49794,98 C288.626066,98 279,88.5986968 279,77 C279,65.4013032 288.626066,56 300.49794,56 C312.373934,56 322,65.4013032 322,77"></path>
        <path d="M322,138 C322,149.598697 312.373934,159 300.49794,159 C288.626066,159 279,149.598697 279,138 C279,126.401303 288.626066,117 300.49794,117 C312.373934,117 322,126.401303 322,138"></path>
        <path d="M95.5861827,46.8548099 C86.3854801,40.4636075 74.334192,37.2699164 59.4323185,37.2699164 C49.4871194,37.2699164 41.2538642,39.2105804 33.8407494,42.0795541 L33.8407494,0 L0,0 L0,171 L33.8407494,171 L33.8407494,98.679706 C34.1074941,91.0698584 34.7723653,85.855279 35.8393443,83.0436084 C37.7543326,78.0085787 40.7004684,74.1960145 44.665808,71.5982753 C48.6311475,69.0043564 54.6348946,67.7054868 60.3042155,67.7054868 C65.9775176,67.7054868 71.8140515,69.0234574 75.687822,71.6593986 C79.569555,74.2953398 82.3882904,77.9894777 84.1360656,82.7456325 C85.8957845,87.497967 86.7716628,95.9864617 86.7716628,108.207296 L86.7716628,171 L119,171 L119,116.714892 C119,95.8642152 117.670258,81.4849649 115.006792,73.5771413 C111.260422,62.1547295 104.786885,53.2460122 95.5861827,46.8548099"></path>
        <path d="M225.018708,107.431726 C225.018708,120.033566 224.312335,128.259984 222.891653,132.107067 C220.982859,137.261298 218.046253,141.170999 214.093741,143.828344 C210.145196,146.489602 205.33948,147.820231 199.688498,147.820231 C194.033548,147.820231 189.263548,146.470034 185.402308,143.769639 C181.533131,141.069245 178.723514,137.28478 176.981392,132.412329 C175.227365,127.543792 174.35432,118.84774 174.35432,106.328087 L174.35432,42 L140,42 L140,97.6124664 C140,118.972976 141.329409,133.703822 143.98426,141.805005 C147.718511,153.506713 154.171107,162.633263 163.33808,169.18074 C172.509021,175.728218 184.521326,179 199.374996,179 C213.069897,179 224.355988,176.197852 233.233268,170.593555 C242.114516,164.985345 248.836963,156.946781 253.400607,146.470034 C257.134858,137.875736 259,121.916014 259,98.5947838 L259,42 L225.018708,42 L225.018708,107.431726 Z"></path>
        <path d="M748.643681,43.8192596 C739.466862,37.271782 727.187909,34 712.325154,34 C698.624717,34 687.33138,36.8021482 678.44514,42.4064446 C674.973892,44.5980689 672.107363,47.4706622 669.295809,50.4058733 C667.151802,48.1672856 665.298376,45.6547449 662.726353,43.8192596 C653.553461,37.271782 641.529748,34 626.666992,34 C612.966556,34 601.673218,36.8021482 592.786979,42.4064446 C583.900739,48.0146546 577.174214,56.0532194 572.607401,66.5299663 C568.873061,75.1242644 567,91.080072 567,114.405216 L567,171 L600.459851,171 L600.247807,105.568274 C600.247807,92.9625207 601.166667,84.740016 602.588151,80.8929326 C604.500479,75.7347883 607.437689,71.8290007 611.391928,69.1677427 C615.346167,66.5103982 620.69833,65.1797692 626.356779,65.1797692 C632.011301,65.1797692 637.47734,66.5299663 641.337337,69.2303605 C645.209114,71.9307547 648.020668,75.7152202 649.764146,80.5876707 C651.519404,85.4562075 652.662089,94.1522596 652.662089,106.671913 L652.442191,171 L686.667758,171 L686.459641,105.568274 C686.459641,92.9625207 687.107555,84.740016 688.529039,80.8929326 C690.441367,75.7347883 693.378577,71.8290007 697.332816,69.1677427 C701.287055,66.5103982 706.356492,65.1797692 712.014941,65.1797692 C717.67339,65.1797692 723.22189,66.5299663 727.085814,69.2303605 C730.957591,71.9307547 733.769145,75.7152202 735.512623,80.5876707 C737.267881,85.4562075 738.108206,94.1522596 738.108206,106.671913 L738.108206,171 L772,171 L772,115.387534 C772,94.0270239 770.668831,79.2961778 768.01042,71.1949951 C764.276079,59.4932869 757.816573,50.3667371 748.643681,43.8192596"></path>
        <polygon points="378.378172 0 342 0 342 171 378.378172 171 378.378172 55.7112888 411 55.7112888 411 26.8146154 378.378172 26.8146154"></polygon>
        <path d="M506.756384,129.923671 C499.942749,137.028704 491.406566,140.583129 481.140179,140.583129 C470.873792,140.583129 462.398854,137.0707 455.707712,130.042024 C449.001257,123.017166 445.659514,113.835219 445.659514,102.5 C445.659514,91.4816631 449.043364,82.4409765 455.826376,75.3741222 C462.601732,68.3072679 471.076669,64.7757496 481.262671,64.7757496 C491.686002,64.7757496 500.241324,68.2690893 506.936295,75.2557686 C513.631266,82.2424479 516.984493,91.3213131 516.984493,102.5 C516.984493,113.674869 513.57002,122.818638 506.756384,129.923671 M515.480134,43.220126 C504.635736,37.0733753 493.048729,34 480.722939,34 C463.669712,34 448.58019,39.9062256 435.454373,51.7224947 C420.487343,65.2949783 413,82.2615372 413,102.618354 C413,121.619831 419.626069,137.769368 432.874378,151.05933 C446.11886,164.35311 462.111763,171 480.841604,171 C493.569321,171 505.213747,167.98771 515.782537,161.959313 C526.347499,155.930916 534.692288,147.56599 540.816904,136.868354 C546.94152,126.170717 550,114.675148 550,102.377829 C550,90.1645023 546.960659,78.7872868 540.87815,68.25 C534.791813,57.7088953 526.32836,49.3668766 515.480134,43.220126"></path>
        <path d="M884.756384,129.923671 C877.942749,137.028704 869.406566,140.583129 859.140179,140.583129 C848.873792,140.583129 840.398854,137.0707 833.707712,130.042024 C827.001257,123.017166 823.659514,113.835219 823.659514,102.5 C823.659514,91.4816631 827.043364,82.4409765 833.826376,75.3741222 C840.601732,68.3072679 849.076669,64.7757496 859.262671,64.7757496 C869.686002,64.7757496 878.241324,68.2690893 884.936295,75.2557686 C891.631266,82.23863 894.980665,91.3213131 894.980665,102.5 C894.980665,113.674869 891.57002,122.818638 884.756384,129.923671 M918.87815,68.25 C912.791813,57.7088953 904.32836,49.3668766 893.480134,43.220126 C882.635736,37.0733753 871.048729,34 858.719111,34 C841.669712,34 826.58019,39.9062256 813.454373,51.7224947 C798.483515,65.2949783 791,82.2615372 791,102.618354 C791,121.619831 797.626069,137.769368 810.87055,151.05933 C824.11886,164.35311 840.107935,171 858.841604,171 C871.569321,171 883.213747,167.98771 893.782537,161.959313 C894.318441,161.653885 894.697402,161.18047 895.221822,160.863588 L895.221822,167.647921 L928,167.647921 L928,102.377829 C928,90.1645023 924.960659,78.7872868 918.87815,68.25"></path>
    </g>
  </g>
</svg>
