<?xml version="1.0" encoding="UTF-8"?>
<svg width="96px" height="96px" viewBox="0 0 96 96" version="1.1" xmlns="http://www.w3.org/2000/svg" xmlns:xlink="http://www.w3.org/1999/xlink" style="background: #ECEFF1;">
    <g id="Symbols" stroke="none" stroke-width="1" fill="none" fill-rule="evenodd">
        <g id="Empty-icon" fill="#CFD8DC">
            <path d="M45.5794005,33.0005197 C52.1441349,32.9811493 56.986098,33.5004417 60.9817208,35.0247784 C66.5054114,37.1320753 69.6666667,41.1013018 69.6666667,47.0281285 C69.6666667,53.1831593 67.8519282,57.4768449 63.7861898,60.2182636 C59.9375794,62.8132787 54.1808903,63.9205197 45.586012,63.9205197 C38.3678482,63.9205197 33.5196079,62.3866796 30.5538555,59.145299 C27.952143,56.3017911 27,52.5140776 27,47.0281285 C27,42.064785 28.8905794,38.3362362 32.5209693,35.9881526 C35.6836561,33.9425726 40.0355482,33.0168779 45.5794005,33.0005197 Z M45.5926235,37.4280507 C35.9234045,37.4565815 31.4543762,40.3470843 31.4543762,47.0281285 C31.4543762,51.5157768 32.1590703,54.3191156 33.8492288,56.1663523 C35.8291879,58.330323 39.5041396,59.4929692 45.586012,59.4929692 C53.3667209,59.4929692 58.3481606,58.5348396 61.2855885,56.5542105 C63.9870283,54.7327019 65.2122905,51.8337219 65.2122905,47.0281285 C65.2122905,43.0643673 63.2866722,40.6465888 59.3855998,39.1583233 C56.0382786,37.8813148 51.6454455,37.4101908 45.5926235,37.4280507 Z M45.8053794,44.3795139 C47.7152886,44.3795139 49.2660479,45.9491017 49.2660479,47.8823811 C49.2660479,49.8156815 47.7152886,51.3852693 45.8053794,51.3852693 C43.8953429,51.3852693 42.3446473,49.8156815 42.3446473,47.8823811 C42.3446473,45.9491017 43.8953429,44.3795139 45.8053794,44.3795139 Z M59.2430021,44.4916575 C61.1530811,44.4916575 62.7038403,46.0612452 62.7038403,47.9945457 C62.7038403,49.9278251 61.1530811,51.4974128 59.2430021,51.4974128 C57.3331353,51.4974128 55.782376,49.9278251 55.782376,47.9945457 C55.782376,46.0612452 57.3331353,44.4916575 59.2430021,44.4916575 Z" id="Hu:toma-logo"></path>
        </g>
    </g>
</svg>
