<?xml version="1.0" encoding="UTF-8"?>
<svg width="34px" height="24px" viewBox="0 0 34 24" version="1.1" xmlns="http://www.w3.org/2000/svg" xmlns:xlink="http://www.w3.org/1999/xlink">
    <!-- Generator: Sketch 48.2 (47327) - http://www.bohemiancoding.com/sketch -->
    <title>mailing_footer</title>
    <desc>Created with Sketch.</desc>
    <defs></defs>
    <g id="mailing/transactional/footer-" stroke="none" stroke-width="1" fill="none" fill-rule="evenodd" transform="translate(-383.000000, -84.000000)">
        <path d="M397.496427,84.0004034 C402.618508,83.9853684 406.396411,84.3884347 409.513964,85.5715997 C413.823779,87.2072491 416.290323,90.2880975 416.290323,94.8884031 C416.290323,99.6658371 414.874388,102.998525 411.702128,105.12637 C408.699281,107.140578 404.20767,108 397.501586,108 C391.869672,108 388.086871,106.809458 385.772867,104.293552 C383.742902,102.086468 383,99.1465068 383,94.8884031 C383,91.0359373 384.475109,88.141899 387.307692,86.319355 C389.775353,84.7316094 393.170881,84.0131003 397.496427,84.0004034 Z M397.506745,87.4369803 C389.962414,87.4591254 386.475491,89.7026863 386.475491,94.8884031 C386.475491,98.3716421 387.025323,100.547548 388.344056,101.981343 C389.888903,103.660981 392.756254,104.563408 397.501586,104.563408 C403.572421,104.563408 407.45915,103.819723 409.751054,102.282392 C411.858831,100.868567 412.814831,98.6184259 412.814831,94.8884031 C412.814831,91.8117967 411.312383,89.9351567 408.268603,88.7799895 C405.656883,87.7887964 402.22941,87.4231177 397.506745,87.4369803 Z M397.672746,92.832592 C399.162937,92.832592 400.372904,94.0508802 400.372904,95.55146 C400.372904,97.0520561 399.162937,98.2703443 397.672746,98.2703443 C396.182455,98.2703443 394.972537,97.0520561 394.972537,95.55146 C394.972537,94.0508802 396.182455,92.832592 397.672746,92.832592 Z M408.157342,92.919636 C409.647666,92.919636 410.857633,94.1379242 410.857633,95.6385203 C410.857633,97.1391 409.647666,98.3573883 408.157342,98.3573883 C406.667184,98.3573883 405.457217,97.1391 405.457217,95.6385203 C405.457217,94.1379242 406.667184,92.919636 408.157342,92.919636 Z" id="mailing_footer" fill="#FFFFFF"></path>
    </g>
</svg>