<?xml version="1.0" encoding="UTF-8"?>
<svg width="125px" height="24px" viewBox="0 0 125 24" version="1.1" xmlns="http://www.w3.org/2000/svg" xmlns:xlink="http://www.w3.org/1999/xlink">
    <!-- Generator: Sketch 48.2 (47327) - http://www.bohemiancoding.com/sketch -->
    <title>mailing_header</title>
    <desc>Created with Sketch.</desc>
    <defs></defs>
    <g id="mailing/transactional/header/small" stroke="none" stroke-width="1" fill="none" fill-rule="evenodd" transform="translate(-338.000000, -52.000000)">
        <g id="mailing_header" transform="translate(338.000000, 52.000000)" fill="#FFFFFF">
            <path d="M43.0769231,10.1538462 C43.0769231,11.6833446 41.837072,12.9230769 40.3074269,12.9230769 C38.7783126,12.9230769 37.5384615,11.6833446 37.5384615,10.1538462 C37.5384615,8.62434767 38.7783126,7.38461538 40.3074269,7.38461538 C41.837072,7.38461538 43.0769231,8.62434767 43.0769231,10.1538462" id="Fill-1"></path>
            <path d="M43.0769231,18.1538462 C43.0769231,19.6833446 41.837072,20.9230769 40.3074269,20.9230769 C38.7783126,20.9230769 37.5384615,19.6833446 37.5384615,18.1538462 C37.5384615,16.6243477 38.7783126,15.3846154 40.3074269,15.3846154 C41.837072,15.3846154 43.0769231,16.6243477 43.0769231,18.1538462" id="Fill-2"></path>
            <path d="M12.8519237,6.23887707 C11.6148545,5.38786677 9.99451322,4.96261596 7.99089997,4.96261596 C6.65373034,4.96261596 5.54673804,5.22102195 4.55001673,5.60303554 L4.55001673,0 L0,0 L0,22.7692308 L4.55001673,22.7692308 L4.55001673,13.139538 C4.58588157,12.1262609 4.67527601,11.431922 4.81873536,11.0575385 C5.07621278,10.3871072 5.47233188,9.87945132 6.00548678,9.53355353 C6.53864169,9.18816441 7.34586818,9.01521552 8.10812981,9.01521552 C8.87092673,9.01521552 9.65567079,9.19070778 10.1765139,9.5416923 C10.6984276,9.89267682 11.0774172,10.3845638 11.3124122,11.017862 C11.549013,11.6506515 11.6667782,12.7809234 11.6667782,14.408169 L11.6667782,22.7692308 L16,22.7692308 L16,15.5409843 C16,12.7646458 15.8212111,10.8499998 15.463098,9.79704626 C14.9593844,8.27611332 14.088993,7.08988737 12.8519237,6.23887707" id="Fill-3"></path>
            <path d="M29.8926253,14.3557632 C29.8926253,16.0539336 29.7976508,17.1624908 29.6066347,17.6809074 C29.3499901,18.3754697 28.9551524,18.9023244 28.4237221,19.2604169 C27.8928254,19.6190367 27.2466787,19.7983467 26.4868828,19.7983467 C25.7265533,19.7983467 25.0852087,19.6163998 24.5660504,19.2525062 C24.045825,18.8886125 23.6680613,18.378634 23.4338265,17.7220433 C23.1979909,17.0659799 23.0806067,15.8941368 23.0806067,14.2070414 L23.0806067,5.53846154 L18.4615385,5.53846154 L18.4615385,13.0325615 C18.4615385,15.9110131 18.6402826,17.8960794 18.9972373,18.9877603 C19.4993215,20.5646329 20.3668975,21.794488 21.5994315,22.6767983 C22.8324992,23.5591085 24.4475991,24 26.4447312,24 C28.2860624,24 29.80352,23.6223944 30.9971039,22.8671832 C32.1912213,22.1114446 33.0950797,21.0282018 33.7086789,19.6163998 C34.2107631,18.4582687 34.4615385,16.3076044 34.4615385,13.1649344 L34.4615385,5.53846154 L29.8926253,5.53846154 L29.8926253,14.3557632 Z" id="Fill-4"></path>
            <path d="M100.22954,5.63089404 C98.9898951,4.74858376 97.3311998,4.30769231 95.323473,4.30769231 C93.4727573,4.30769231 91.9472032,4.6852979 90.7468107,5.4405091 C90.2778991,5.73584309 89.8906757,6.12294156 89.5108785,6.51847815 C89.2212566,6.21681558 88.9708875,5.87823626 88.6234473,5.63089404 C87.3843325,4.74858376 85.760116,4.30769231 83.7523892,4.30769231 C81.9016735,4.30769231 80.3761195,4.6852979 79.1757269,5.4405091 C77.9753344,6.19624768 77.0666855,7.27949055 76.4497803,8.69129248 C75.945329,9.84942362 75.6923077,11.9995605 75.6923077,15.1427579 L75.6923077,22.7692308 L80.2122126,22.7692308 L80.1835686,13.9519291 C80.1835686,12.2532313 80.3076923,11.1452015 80.4997127,10.6267849 C80.7580384,9.93169523 81.1548098,9.40536787 81.6889659,9.04674803 C82.223122,8.68865557 82.9461158,8.50934565 83.7104842,8.50934565 C84.4743221,8.50934565 85.2126988,8.69129248 85.7341243,9.05518614 C86.2571411,9.41907981 86.6369383,9.92905832 86.872455,10.5856491 C87.109563,11.2417124 87.2639219,12.4135555 87.2639219,14.1006509 L87.2342171,22.7692308 L91.8575584,22.7692308 L91.8294449,13.9519291 C91.8294449,12.2532313 91.916968,11.1452015 92.1089884,10.6267849 C92.3673141,9.93169523 92.7640855,9.40536787 93.2982416,9.04674803 C93.8323977,8.68865557 94.5171996,8.50934565 95.281568,8.50934565 C96.0459364,8.50934565 96.7954523,8.69129248 97.3174083,9.05518614 C97.8404251,9.41907981 98.2202223,9.92905832 98.455739,10.5856491 C98.692847,11.2417124 98.8063618,12.4135555 98.8063618,14.1006509 L98.8063618,22.7692308 L103.384615,22.7692308 L103.384615,15.2751309 C103.384615,12.3966793 103.204795,10.411613 102.845685,9.31993197 C102.341234,7.74305943 101.468655,6.51320433 100.22954,5.63089404" id="Fill-5"></path>
            <polygon id="Fill-6" points="50.4051067 0 45.5384615 0 45.5384615 22.7692308 50.4051067 22.7692308 50.4051067 7.41814732 54.7692308 7.41814732 54.7692308 3.57045711 50.4051067 3.57045711"></polygon>
            <path d="M68.0188278,17.233959 C67.1006512,18.1914031 65.9503514,18.6703823 64.5668966,18.6703823 C63.1834419,18.6703823 62.0413953,18.1970623 61.1397253,17.2499078 C60.235992,16.3032678 59.7856728,15.0659475 59.7856728,13.5384615 C59.7856728,12.0536772 60.2416661,10.8353927 61.155716,9.88309339 C62.0687343,8.9307941 63.2107808,8.45490169 64.5834032,8.45490169 C65.988007,8.45490169 67.1408859,8.92564931 68.0430718,9.86714456 C68.9452576,10.8086398 69.3971243,12.0320691 69.3971243,13.5384615 C69.3971243,15.0443395 68.9370043,16.2765149 68.0188278,17.233959 M69.1944032,5.55015734 C67.7330582,4.72184732 66.1716423,4.30769231 64.5106712,4.30769231 C62.2126507,4.30769231 60.1792508,5.1035902 58.4104713,6.69590047 C56.3935779,8.52487074 55.3846154,10.8112122 55.3846154,13.5544104 C55.3846154,16.1149687 56.2775163,18.2912119 58.0628022,20.0821107 C59.8475724,21.8735241 62.0027081,22.7692308 64.5266619,22.7692308 C66.2417951,22.7692308 67.8109485,22.3633074 69.2351538,21.5509462 C70.6588433,20.738585 71.7833516,19.6113631 72.6086788,18.169795 C73.4340061,16.7282269 73.8461538,15.1791328 73.8461538,13.5219982 C73.8461538,11.8761822 73.4365852,10.343037 72.6169321,8.92307692 C71.7967632,7.5026024 70.6562641,6.37846737 69.1944032,5.55015734" id="Fill-7"></path>
            <path d="M118.480366,17.233959 C117.56219,18.1914031 116.41189,18.6703823 115.028435,18.6703823 C113.64498,18.6703823 112.502934,18.1970623 111.601264,17.2499078 C110.69753,16.3032678 110.247211,15.0659475 110.247211,13.5384615 C110.247211,12.0536772 110.703205,10.8353927 111.617254,9.88309339 C112.530273,8.9307941 113.672319,8.45490169 115.044942,8.45490169 C116.449545,8.45490169 117.602424,8.92564931 118.50461,9.86714456 C119.406796,10.8081253 119.858147,12.0320691 119.858147,13.5384615 C119.858147,15.0443395 119.398543,16.2765149 118.480366,17.233959 M123.078471,8.92307692 C122.258302,7.5026024 121.117803,6.37846737 119.655942,5.55015734 C118.194597,4.72184732 116.633181,4.30769231 114.971694,4.30769231 C112.674189,4.30769231 110.640789,5.1035902 108.87201,6.69590047 C106.854601,8.52487074 105.846154,10.8112122 105.846154,13.5544104 C105.846154,16.1149687 106.739055,18.2912119 108.523825,20.0821107 C110.309111,21.8735241 112.463731,22.7692308 114.9882,22.7692308 C116.703334,22.7692308 118.272487,22.3633074 119.696692,21.5509462 C119.768908,21.5097879 119.819975,21.4459926 119.890644,21.4032909 L119.890644,22.3175188 L124.307692,22.3175188 L124.307692,13.5219982 C124.307692,11.8761822 123.898124,10.343037 123.078471,8.92307692" id="Fill-8"></path>
        </g>
    </g>
</svg>